<?xml version="1.0" encoding="utf-8"?>
<!-- Generator: Adobe Illustrator 16.0.0, SVG Export Plug-In . SVG Version: 6.00 Build 0)  -->
<!DOCTYPE svg PUBLIC "-//W3C//DTD SVG 1.1//EN" "http://www.w3.org/Graphics/SVG/1.1/DTD/svg11.dtd">
<svg version="1.1" id="Layer_1" xmlns="http://www.w3.org/2000/svg" xmlns:xlink="http://www.w3.org/1999/xlink" x="0px" y="0px"
	 width="200px" height="100px" viewBox="0 0 200 100" enable-background="new 0 0 200 100" xml:space="preserve">
<rect x="-2.64" y="-2.783" width="205.535" height="104.941"/>
<g enable-background="new    ">
	<path fill="#F1F2F2" d="M26.978,58.518c0-1.784-0.654-3.21-1.963-4.277s-3.578-2.044-6.807-2.93
		c-3.242-0.872-5.615-1.865-7.119-2.979s-2.256-2.737-2.256-4.873c0-2.122,0.885-3.815,2.656-5.078
		c1.771-1.263,4.03-1.895,6.777-1.895c2.773,0,5.039,0.774,6.797,2.324s2.61,3.542,2.559,5.977l-0.039,0.117h-0.898
		c0-2.122-0.781-3.88-2.344-5.273s-3.587-2.09-6.074-2.09c-2.578,0-4.619,0.576-6.123,1.729s-2.256,2.536-2.256,4.15
		s0.622,2.956,1.865,4.023c1.243,1.067,3.493,2.019,6.748,2.852c3.151,0.833,5.53,1.853,7.139,3.057
		c1.608,1.204,2.412,2.913,2.412,5.127c0,2.253-0.918,4.026-2.754,5.322s-4.134,1.943-6.895,1.943c-2.852,0-5.306-0.667-7.363-2.002
		c-2.058-1.335-3.054-3.435-2.988-6.299l0.039-0.117H8.97c0,2.578,0.95,4.45,2.852,5.615c1.901,1.165,4.095,1.748,6.582,1.748
		c2.5,0,4.554-0.573,6.162-1.719C26.173,61.825,26.978,60.341,26.978,58.518z"/>
	<path fill="#F1F2F2" d="M41.274,62.561l0.508,1.543h0.117l0.508-1.543l9.551-25.664h1.152L42.485,65.334h-1.289L30.571,36.896
		h1.152L41.274,62.561z"/>
	<path fill="#F1F2F2" d="M77.466,62.287c-0.599,0.833-1.748,1.618-3.447,2.354s-3.786,1.104-6.26,1.104
		c-3.255,0-5.896-1.159-7.92-3.477c-2.025-2.317-3.037-5.332-3.037-9.043v-4.648c0-3.567,0.983-6.475,2.949-8.721
		c1.966-2.246,4.524-3.369,7.676-3.369c3.008,0,5.394,0.778,7.158,2.334c1.764,1.556,2.666,3.564,2.705,6.025l-0.039,0.117h-0.879
		c-0.104-2.2-0.915-3.987-2.432-5.361c-1.517-1.374-3.688-2.061-6.514-2.061c-2.878,0-5.192,1.025-6.943,3.076
		c-1.751,2.051-2.627,4.69-2.627,7.92v4.688c0,3.386,0.905,6.143,2.715,8.271c1.81,2.129,4.206,3.193,7.188,3.193
		c2.096,0,3.929-0.306,5.498-0.918c1.569-0.612,2.62-1.27,3.154-1.973v-8.281H67.72v-1.074h9.746V62.287z"/>
	<path fill="#F1F2F2" d="M95.532,64.279h14.59v1.055H94.458V36.896h1.074V64.279z"/>
	<path fill="#F1F2F2" d="M133.97,53.244c0,3.841-0.95,6.885-2.852,9.131s-4.519,3.369-7.852,3.369c-3.347,0-5.974-1.123-7.881-3.369
		s-2.861-5.29-2.861-9.131v-4.258c0-3.828,0.947-6.868,2.842-9.121s4.515-3.379,7.861-3.379c3.333,0,5.957,1.126,7.871,3.379
		s2.871,5.293,2.871,9.121V53.244z M132.915,48.947c0-3.489-0.84-6.263-2.52-8.32s-4.069-3.086-7.168-3.086
		c-3.086,0-5.462,1.028-7.129,3.086s-2.5,4.831-2.5,8.32v4.297c0,3.516,0.837,6.302,2.51,8.359s4.06,3.086,7.158,3.086
		s5.481-1.025,7.148-3.076s2.5-4.841,2.5-8.369V48.947z"/>
	<path fill="#F1F2F2" d="M160.513,62.287c-0.599,0.833-1.748,1.618-3.447,2.354s-3.786,1.104-6.26,1.104
		c-3.255,0-5.896-1.159-7.92-3.477s-3.037-5.332-3.037-9.043v-4.648c0-3.567,0.983-6.475,2.949-8.721s4.524-3.369,7.676-3.369
		c3.008,0,5.394,0.778,7.158,2.334s2.666,3.564,2.705,6.025l-0.039,0.117h-0.879c-0.104-2.2-0.915-3.987-2.432-5.361
		s-3.688-2.061-6.514-2.061c-2.878,0-5.192,1.025-6.943,3.076s-2.627,4.69-2.627,7.92v4.688c0,3.386,0.905,6.143,2.715,8.271
		s4.206,3.193,7.188,3.193c2.097,0,3.929-0.306,5.498-0.918s2.62-1.27,3.154-1.973v-8.281h-8.691v-1.074h9.746V62.287z"/>
	<path fill="#F1F2F2" d="M188.071,53.244c0,3.841-0.95,6.885-2.852,9.131s-4.519,3.369-7.852,3.369
		c-3.347,0-5.974-1.123-7.881-3.369s-2.861-5.29-2.861-9.131v-4.258c0-3.828,0.947-6.868,2.842-9.121s4.515-3.379,7.861-3.379
		c3.333,0,5.957,1.126,7.871,3.379s2.871,5.293,2.871,9.121V53.244z M187.017,48.947c0-3.489-0.84-6.263-2.52-8.32
		s-4.069-3.086-7.168-3.086c-3.086,0-5.462,1.028-7.129,3.086s-2.5,4.831-2.5,8.32v4.297c0,3.516,0.837,6.302,2.51,8.359
		s4.06,3.086,7.158,3.086s5.481-1.025,7.148-3.076s2.5-4.841,2.5-8.369V48.947z"/>
</g>
</svg>
